<?xml version="1.0" encoding="utf-8"?>

<!DOCTYPE svg PUBLIC "-//W3C//DTD SVG 1.1//EN" "http://www.w3.org/Graphics/SVG/1.1/DTD/svg11.dtd">
<!-- Uploaded to: SVG Repo, www.svgrepo.com, Generator: SVG Repo Mixer Tools -->
<svg height="800px" width="800px" version="1.1" id="_x32_" xmlns="http://www.w3.org/2000/svg" xmlns:xlink="http://www.w3.org/1999/xlink" 
	 viewBox="0 0 512 512"  xml:space="preserve">
<style type="text/css">
	.st0{fill:#000000;}
</style>
<g>
	<path class="st0" d="M454.608,111.204L280.557,6.804C272.992,2.268,264.504,0,256,0c-8.507,0-16.996,2.268-24.557,6.797
		L57.392,111.204c-5.346,3.203-9.916,7.37-13.555,12.192l207.902,124.707c2.622,1.575,5.896,1.575,8.518,0L468.16,123.396
		C464.521,118.574,459.955,114.407,454.608,111.204z M177.16,131.738c-12.056,8.371-31.302,8.16-42.984-0.49
		c-11.684-8.65-11.382-22.463,0.678-30.842c12.056-8.386,31.304-8.16,42.992,0.482C189.525,109.539,189.22,123.344,177.16,131.738z
		 M376.303,134.126c-12.056,8.38-31.306,8.16-42.992-0.49c-11.68-8.65-11.378-22.462,0.685-30.841
		c12.053-8.38,31.302-8.168,42.985,0.482C388.664,111.928,388.359,125.732,376.303,134.126z"/>
	<path class="st0" d="M246.136,258.366L38.004,133.523c-2.457,5.802-3.794,12.116-3.794,18.62v208.084
		c0,16.773,8.801,32.311,23.182,40.946l174.051,104.392c5.828,3.496,12.203,5.629,18.714,6.435V265.464
		C250.156,262.556,248.631,259.858,246.136,258.366z M75.845,369.736c-12.052-6.571-21.829-21.671-21.829-33.728
		c0-12.056,9.777-16.502,21.829-9.931c12.056,6.57,21.826,21.671,21.826,33.728C97.671,371.861,87.902,376.306,75.845,369.736z
		 M75.845,247.869c-12.052-6.578-21.829-21.678-21.829-33.728c0-12.056,9.777-16.501,21.829-9.931
		c12.056,6.571,21.826,21.671,21.826,33.728C97.671,249.986,87.902,254.44,75.845,247.869z M136.779,342.014
		c-12.056-6.571-21.826-21.671-21.826-33.728s9.769-16.502,21.826-9.931c12.056,6.571,21.829,21.671,21.829,33.728
		C158.608,344.131,148.835,348.585,136.779,342.014z M197.716,436.158c-12.056-6.571-21.83-21.671-21.83-33.727
		c0-12.049,9.773-16.495,21.83-9.924c12.056,6.57,21.826,21.67,21.826,33.72C219.541,438.284,209.772,442.729,197.716,436.158z
		 M197.716,314.292c-12.056-6.57-21.83-21.671-21.83-33.727c0-12.056,9.773-16.502,21.83-9.931
		c12.056,6.571,21.826,21.671,21.826,33.727C219.541,316.417,209.772,320.863,197.716,314.292z"/>
	<path class="st0" d="M473.992,133.523L265.864,258.366c-2.494,1.492-4.02,4.19-4.02,7.098V512
		c6.506-0.806,12.889-2.939,18.714-6.435l174.051-104.392c14.381-8.635,23.182-24.172,23.182-40.946V152.143
		C477.79,145.64,476.453,139.326,473.992,133.523z M321.232,262.932c12.053-6.571,21.826-2.125,21.826,9.931
		c0,12.049-9.773,27.149-21.826,33.72c-12.06,6.571-21.83,2.125-21.83-9.924C299.402,284.604,309.172,269.503,321.232,262.932z
		 M321.232,448.735c-12.06,6.57-21.83,2.125-21.83-9.931s9.77-27.15,21.83-33.728c12.053-6.571,21.826-2.118,21.826,9.931
		C343.058,427.064,333.285,442.164,321.232,448.735z M322.536,377.663c-12.056,6.571-21.83,2.117-21.83-9.939
		c0-12.048,9.773-27.149,21.83-33.72c12.056-6.57,21.826-2.125,21.826,9.931S334.592,371.085,322.536,377.663z M427.32,386.403
		c-12.056,6.571-21.826,2.125-21.826-9.931c0-12.056,9.769-27.156,21.826-33.72c12.056-6.578,21.829-2.133,21.829,9.924
		C449.149,364.732,439.376,379.833,427.32,386.403z M427.32,315.332c-12.056,6.563-21.826,2.125-21.826-9.931
		c0-12.056,9.769-27.157,21.826-33.728c12.056-6.571,21.829-2.125,21.829,9.931C449.149,293.653,439.376,308.761,427.32,315.332z
		 M427.32,244.253c-12.056,6.57-21.826,2.125-21.826-9.924c0-12.056,9.769-27.157,21.826-33.728
		c12.056-6.571,21.829-2.125,21.829,9.931C449.149,222.582,439.376,237.682,427.32,244.253z"/>
</g>
</svg>